<?xml version="1.0" encoding="UTF-8" standalone="no"?>
<!-- Created with Inkscape (http://www.inkscape.org/) -->

<svg
   width="63.99897"
   height="25.044001"
   viewBox="0 0 16.933061 6.6262252"
   version="1.1"
   id="svg1"
   sodipodi:docname="image.svg"
   inkscape:export-filename="image.svg"
   inkscape:export-xdpi="96.000305"
   inkscape:export-ydpi="96.000305"
   inkscape:version="1.4.2 (1:1.4.2+202505120738+ebf0e940d0)"
   xmlns:inkscape="http://www.inkscape.org/namespaces/inkscape"
   xmlns:sodipodi="http://sodipodi.sourceforge.net/DTD/sodipodi-0.dtd"
   xmlns="http://www.w3.org/2000/svg"
   xmlns:svg="http://www.w3.org/2000/svg">
  <sodipodi:namedview
     id="namedview1"
     pagecolor="#ffffff"
     bordercolor="#666666"
     borderopacity="1.0"
     inkscape:showpageshadow="2"
     inkscape:pageopacity="0.0"
     inkscape:pagecheckerboard="0"
     inkscape:deskcolor="#d1d1d1"
     inkscape:document-units="mm"
     inkscape:zoom="2.6481543"
     inkscape:cx="32.097828"
     inkscape:cy="12.272699"
     inkscape:window-width="1366"
     inkscape:window-height="749"
     inkscape:window-x="0"
     inkscape:window-y="0"
     inkscape:window-maximized="1"
     inkscape:current-layer="svg1" />
  <defs
     id="defs1" />
  <g
     id="layer1"
     transform="matrix(0.39131373,0,0,0.39131373,-32.647253,-54.774366)">
    <path
       style="color:black;fill:#000001;stroke-width:0.651435"
       d="m 83.879993,141.25157 c -0.251728,0 -0.450124,0.21648 -0.450124,0.45563 v 14.74602 c 0,0.23914 0.198392,0.45564 0.450124,0.45564 h 15.362973 c 0.251732,0 0.450126,-0.2165 0.450126,-0.45564 V 141.7072 c 0,-0.23914 -0.198398,-0.45563 -0.450126,-0.45563 z"
       id="rect3438-4-1-6-9-8-4-5-7" />
    <path
       id="path3008-3-9"
       style="fill:white;stroke-width:0.134303"
       d="m 87.719724,147.79335 2.273423,-2.87544 c 0.464712,-0.58617 0.69707,-1.02448 0.697078,-1.31495 -8e-6,-0.1056 -0.01322,-0.19009 -0.03961,-0.25348 h 3.968588 c -0.30102,0.16901 -0.678604,0.52546 -1.13275,1.06938 -0.121471,0.14259 -0.335346,0.404 -0.641627,0.78421 l -2.978423,3.70718 3.556679,4.89539 c 0.216506,0.29574 0.491113,0.62844 0.82382,0.9981 0.08976,0.0951 0.219146,0.2086 0.388145,0.34062 h -4.071566 c 0.03168,-0.12146 0.04752,-0.22972 0.04753,-0.32478 -8e-6,-0.29044 -0.200681,-0.71028 -0.602022,-1.25949 l -2.289266,-3.12101 v 3.16061 c -5e-6,0.73405 0.147861,1.24894 0.443594,1.54467 h -3.723028 c 0.205954,-0.20595 0.337976,-0.44095 0.396068,-0.705 0.03168,-0.14787 0.04753,-0.42512 0.04753,-0.83175 v -8.72139 c -2e-6,-0.40661 -0.01585,-0.68387 -0.04753,-0.83173 -0.05809,-0.26404 -0.190114,-0.49905 -0.396068,-0.70501 h 3.723028 c -0.295733,0.29574 -0.443599,0.80799 -0.443594,1.53674 v 2.90713" />
    <path
       style="fill:white;stroke-width:0.134303"
       d="m 98.358078,146.47841 v 7.27179 c -4e-6,0.38023 0.01056,0.62842 0.03168,0.74461 0.04224,0.23764 0.153142,0.45416 0.332697,0.64955 H 95.23707 c 0.17955,-0.19539 0.290447,-0.41191 0.332696,-0.64955 0.02112,-0.11619 0.03168,-0.36438 0.03168,-0.74461 v -5.89348 c -2e-6,-0.38022 -0.01057,-0.62577 -0.03168,-0.73668 -0.04225,-0.23236 -0.150506,-0.44624 -0.324774,-0.64163 h 3.113084"
       id="path28126" />
    <path
       id="path3012-6-0"
       style="fill:#00000a;stroke-width:0.134303"
       d="m 108.64789,154.62155 c -0.83966,0.47528 -1.77966,0.71292 -2.81999,0.71292 -1.65292,0 -2.9705,-0.61258 -3.95275,-1.83775 -0.91359,-1.13539 -1.37039,-2.55068 -1.37039,-4.24585 0,-1.9011 0.55977,-3.41143 1.67933,-4.53099 1.03505,-1.03505 2.26021,-1.55257 3.67549,-1.55258 0.92416,10e-6 1.86944,0.26933 2.83584,0.80798 0.2482,0.13731 0.44887,0.21387 0.60203,0.22971 l -1.41793,2.05954 c -0.46472,-0.59144 -1.08523,-0.88717 -1.86151,-0.88719 -1.21461,2e-5 -2.00674,0.74989 -2.3764,2.24967 -0.12146,0.49113 -0.18219,1.03242 -0.18219,1.62386 0,1.67934 0.42511,2.82529 1.27533,3.43787 0.39606,0.28517 0.81854,0.42776 1.26742,0.42776 0.80269,0 1.51561,-0.34327 2.13876,-1.02978 l 1.31494,2.15461 c -0.0634,-0.0158 -0.3327,0.11089 -0.80798,0.38022" />
    <path
       id="path3014-2-2"
       style="fill:#00000a;stroke-width:0.134303"
       d="m 114.4075,152.7125 v -1.37039 c -0.20068,-0.0369 -0.41192,-0.0554 -0.63371,-0.0554 -0.4436,0 -0.82382,0.0792 -1.14067,0.23764 -0.40135,0.20069 -0.60202,0.50168 -0.60202,0.90303 0,0.30102 0.11354,0.5413 0.34062,0.72085 0.20594,0.1637 0.46471,0.24555 0.77629,0.24555 0.57561,0 0.99544,-0.22707 1.25949,-0.68123 m 3.11309,2.43186 h -2.95466 v -0.67332 c -0.54394,0.5545 -1.24366,0.83703 -2.09916,0.84759 -0.6073,0.005 -1.15916,-0.12938 -1.65556,-0.40399 -0.52281,-0.29044 -0.90303,-0.70236 -1.14067,-1.23574 -0.16899,-0.38022 -0.25348,-0.81061 -0.25348,-1.29117 0,-1.09842 0.53601,-1.90904 1.60803,-2.43185 0.61786,-0.30101 1.48393,-0.45151 2.5982,-0.45153 0.15842,2e-5 0.43303,0.0106 0.82382,0.0317 -10e-6,-0.90304 -0.39344,-1.35455 -1.18029,-1.35455 -0.67067,0 -1.37567,0.19539 -2.11499,0.58617 l -0.78421,-1.8932 c 0.17427,0 0.51488,-0.0634 1.02185,-0.19011 l 1.0773,-0.26932 c 0.36438,-0.0739 0.76045,-0.1109 1.1882,-0.11091 1.68988,1e-5 2.75134,0.53866 3.18438,1.61596 0.21123,0.52809 0.31684,1.18028 0.31685,1.95656 v 3.87355 c -1e-5,0.38023 0.0106,0.62842 0.0317,0.7446 0.0422,0.23764 0.15314,0.45416 0.3327,0.64956" />
    <path
       id="path3016-9-3"
       style="fill:#00000a;stroke-width:0.134303"
       d="m 123.5812,152.7125 v -3.95275 c -0.34855,-0.29571 -0.73669,-0.44358 -1.16444,-0.44358 -0.92944,0 -1.39415,0.90303 -1.39415,2.70908 0,1.45754 0.42511,2.18629 1.27533,2.18629 0.44359,0 0.87135,-0.16634 1.28326,-0.49904 m -0.35646,-10.08386 h 3.11308 v 11.12156 c 0,0.66012 0.12146,1.12483 0.36439,1.39416 h -2.96258 v -0.67332 c -0.57563,0.56506 -1.30967,0.84759 -2.20213,0.84759 -0.75518,0 -1.41001,-0.22707 -1.9645,-0.68123 -0.52281,-0.42775 -0.90567,-1.01131 -1.14859,-1.75063 -0.16899,-0.51752 -0.25349,-1.09314 -0.25349,-1.72685 0,-2.10178 0.53602,-3.53819 1.60804,-4.30921 0.50696,-0.36436 1.0905,-0.54656 1.75061,-0.54657 0.87134,1e-5 1.55522,0.23501 2.05163,0.70501 v -3.00219 c -10e-6,-0.38021 -0.0106,-0.62579 -0.0317,-0.7367 -0.0422,-0.23234 -0.15051,-0.44622 -0.32477,-0.64162" />
    <path
       d="m 98.584657,141.58114 c 0,0.88673 -0.720959,1.60556 -1.610309,1.60556 -0.889349,0 -1.61031,-0.71883 -1.61031,-1.60556 0,-0.88672 0.720961,-1.60556 1.61031,-1.60556 0.88935,0 1.610309,0.71884 1.610309,1.60556 z"
       id="path3552-6-3-7-2-5"
       style="stroke-width:0.134303" />
    <path
       style="color:black;fill:white;stroke-width:0.651435"
       d="m 95.398339,141.25165 c -0.02228,0.10642 -0.03436,0.21645 -0.03436,0.32946 0,0.88673 0.720973,1.6056 1.610321,1.6056 0.88935,0 1.610322,-0.71887 1.610322,-1.6056 0,-0.11301 -0.01209,-0.22304 -0.03436,-0.32946 z"
       id="path4542" />
  </g>
</svg>
